<svg width="24" height="24" viewBox="0 0 24 24" fill="none" xmlns="http://www.w3.org/2000/svg">
<path d="M20.75 4.875C20.75 4.80628 20.6937 4.75 20.625 4.75H3.375C3.30628 4.75 3.25 4.80628 3.25 4.875V6.375C3.25 6.44372 3.30628 6.5 3.375 6.5H20.625C20.6937 6.5 20.75 6.44372 20.75 6.375V4.875ZM5.37305 18.0732L5.38574 18.1914C5.42812 18.4649 5.56068 18.7177 5.76367 18.9092C5.99574 19.1279 6.30316 19.2501 6.62207 19.25H17.3779L17.4971 19.2441C17.7727 19.218 18.0332 19.1006 18.2363 18.9092C18.4682 18.6905 18.6083 18.3915 18.627 18.0732L19.1895 8.5H4.81055L5.37305 18.0732ZM14 10.25C14.5523 10.25 15 10.6977 15 11.25C15 11.8023 14.5523 12.25 14 12.25H10C9.44772 12.25 9 11.8023 9 11.25C9 10.6977 9.44772 10.25 10 10.25H14ZM22.75 6.375C22.75 7.34974 22.0923 8.16872 21.1973 8.41895L20.623 18.1904C20.5744 19.0181 20.2117 19.7965 19.6084 20.3652C19.0804 20.8629 18.4031 21.1672 17.6865 21.2354L17.3779 21.25H6.62207C5.79302 21.2502 4.9949 20.9339 4.3916 20.3652C3.86357 19.8675 3.51946 19.2094 3.40918 18.498L3.37695 18.1904L2.80176 8.41895C1.90715 8.16842 1.25 7.34941 1.25 6.375V4.875C1.25 3.70172 2.20172 2.75 3.375 2.75H20.625C21.7983 2.75 22.75 3.70172 22.75 4.875V6.375Z" fill="black"/>
</svg>
