<svg width="24" height="24" viewBox="0 0 24 24" fill="none" xmlns="http://www.w3.org/2000/svg">
<path d="M17.2929 5.29289C17.6834 4.90237 18.3164 4.90237 18.707 5.29289C19.0674 5.65338 19.095 6.22091 18.79 6.61321L18.707 6.70696L13.414 11.9999L18.707 17.2929C19.0975 17.6834 19.0975 18.3164 18.707 18.707C18.3465 19.0674 17.7789 19.095 17.3866 18.79L17.2929 18.707L11.9999 13.414L6.70696 18.707C6.31643 19.0975 5.68342 19.0975 5.29289 18.707C4.93241 18.3465 4.90486 17.7789 5.20989 17.3866L5.29289 17.2929L10.5859 11.9999L5.29289 6.70696C4.90237 6.31643 4.90237 5.68342 5.29289 5.29289C5.65338 4.93241 6.22091 4.90486 6.61321 5.20989L6.70696 5.29289L11.9999 10.5859L17.2929 5.29289Z" fill="#171717"/>
</svg>
