<svg width="24" height="24" viewBox="0 0 24 24" fill="none" xmlns="http://www.w3.org/2000/svg">
<path d="M14 18.25H10V18.2568L9.99512 18.4541C9.97256 18.9122 9.87121 19.3634 9.69531 19.7881C9.6656 19.8598 9.63335 19.9303 9.59961 20H14.4004C14.3666 19.9303 14.3344 19.8598 14.3047 19.7881C14.1036 19.3026 13.9999 18.7823 14 18.2568V18.25ZM19.999 15C19.6069 15.1633 19.183 15.25 18.75 15.25H5.25C4.81671 15.25 4.39235 15.1635 4 15C4 15.3315 4.13179 15.6494 4.36621 15.8838C4.60063 16.1182 4.91848 16.25 5.25 16.25H18.75L18.874 16.2441C19.16 16.2156 19.4288 16.0888 19.6338 15.8838C19.8682 15.6494 19.999 15.3315 19.999 15ZM19.9941 5.12598C19.9656 4.83999 19.8388 4.57122 19.6338 4.36621C19.3994 4.13179 19.0815 4 18.75 4H5.25C4.91848 4 4.60063 4.13179 4.36621 4.36621C4.13179 4.60063 4 4.91848 4 5.25V12C4 12.3315 4.13179 12.6494 4.36621 12.8838C4.60063 13.1182 4.91848 13.25 5.25 13.25H18.75C19.0815 13.25 19.3994 13.1182 19.6338 12.8838C19.8388 12.6788 19.9656 12.41 19.9941 12.124L20 12V5.25L19.9941 5.12598ZM22 15L21.9961 15.1611C21.9563 15.9644 21.6193 16.7264 21.0479 17.2979C20.4764 17.8693 19.7144 18.2063 18.9111 18.2461L18.75 18.25H16V18.2568L16.0098 18.4531C16.029 18.6485 16.0769 18.8404 16.1523 19.0225C16.2529 19.2652 16.4001 19.4861 16.5859 19.6719L17.207 20.293C17.493 20.579 17.5786 21.0091 17.4238 21.3828C17.269 21.7564 16.9044 22 16.5 22H7.5C7.09558 22 6.73098 21.7564 6.57617 21.3828C6.42139 21.0091 6.50697 20.579 6.79297 20.293L7.41406 19.6719L7.5459 19.5264C7.67053 19.3745 7.77221 19.2046 7.84766 19.0225C7.92306 18.8404 7.97101 18.6485 7.99023 18.4531L8 18.2568V18.25H5.25C4.38805 18.25 3.56164 17.9073 2.95215 17.2979C2.34266 16.6884 2 15.862 2 15V5.25C2 4.38805 2.34266 3.56164 2.95215 2.95215C3.56164 2.34266 4.38805 2 5.25 2H18.75C19.612 2 20.4384 2.34266 21.0479 2.95215C21.6573 3.56164 22 4.38805 22 5.25V15Z" fill="black"/>
</svg>
