<svg width="24" height="24" viewBox="0 0 24 24" fill="none" xmlns="http://www.w3.org/2000/svg">
<path d="M4.5 12C4.5 11.6022 4.65815 11.2208 4.93945 10.9395C5.22076 10.6581 5.60217 10.5 6 10.5C6.39783 10.5 6.77924 10.6581 7.06055 10.9395C7.34185 11.2208 7.5 11.6022 7.5 12L7.49219 12.1484C7.45805 12.4917 7.30663 12.8145 7.06055 13.0605C6.77924 13.3419 6.39783 13.5 6 13.5C5.60217 13.5 5.22076 13.3419 4.93945 13.0605C4.69337 12.8145 4.54195 12.4917 4.50781 12.1484L4.5 12ZM10.5 12C10.5 11.6022 10.6581 11.2208 10.9395 10.9395C11.2208 10.6581 11.6022 10.5 12 10.5C12.3978 10.5 12.7792 10.6581 13.0605 10.9395C13.3419 11.2208 13.5 11.6022 13.5 12C13.5 12.3978 13.3419 12.7792 13.0605 13.0605C12.7792 13.3419 12.3978 13.5 12 13.5C11.6022 13.5 11.2208 13.3419 10.9395 13.0605C10.6581 12.7792 10.5 12.3978 10.5 12ZM16.5 12C16.5 11.6022 16.6581 11.2208 16.9395 10.9395C17.2208 10.6581 17.6022 10.5 18 10.5C18.3978 10.5 18.7792 10.6581 19.0605 10.9395C19.3419 11.2208 19.5 11.6022 19.5 12C19.5 12.3978 19.3419 12.7792 19.0605 13.0605C18.7792 13.3419 18.3978 13.5 18 13.5C17.6022 13.5 17.2208 13.3419 16.9395 13.0605C16.6581 12.7792 16.5 12.3978 16.5 12Z" fill="black"/>
</svg>
