<svg width="24" height="24" viewBox="0 0 24 24" fill="none" xmlns="http://www.w3.org/2000/svg">
<path d="M20.7502 4.12476C20.7501 3.89289 20.6582 3.67064 20.4943 3.50659C20.3302 3.34245 20.1073 3.24976 19.8752 3.24976C19.643 3.24976 19.4202 3.34245 19.256 3.50659L19.2551 3.50562L18.2756 4.48608L19.5138 5.72437L20.4943 4.7439L20.5519 4.67944C20.6795 4.5237 20.7502 4.32786 20.7502 4.12476ZM4.88689 17.8738L4.88787 17.8748C4.52821 18.2346 4.25188 18.6682 4.07732 19.1443L4.00897 19.3503L3.7365 20.2634L4.64959 19.9919L4.85662 19.9226C5.33231 19.7481 5.76553 19.4724 6.12518 19.113L18.0998 7.13843L16.8625 5.90112L4.88689 17.8738ZM22.7502 4.12476C22.7502 4.79205 22.5181 5.43537 22.0988 5.94702L21.9084 6.15796L7.53924 20.5271C6.97388 21.0921 6.29296 21.5262 5.5451 21.8005L5.22088 21.908L2.53533 22.7087C2.18354 22.8134 1.80269 22.7163 1.54314 22.4568C1.28359 22.1971 1.18735 21.8165 1.29217 21.4646L2.09197 18.7791C2.35268 17.9037 2.8272 17.1067 3.47283 16.4607L16.1369 3.79858C16.1427 3.79243 16.1484 3.78607 16.1545 3.78003L17.842 2.09253V2.09155L18.0529 1.90112C18.5646 1.48184 19.2079 1.24976 19.8752 1.24976C20.6377 1.24976 21.3692 1.55242 21.9084 2.09155C22.4475 2.63071 22.7501 3.36228 22.7502 4.12476Z" fill="black"/>
</svg>
