<svg width="24" height="24" viewBox="0 0 24 24" fill="none" xmlns="http://www.w3.org/2000/svg">
<path d="M2 18.75V8.25C2 7.38805 2.34266 6.56164 2.95215 5.95215C3.56164 5.34266 4.38805 5 5.25 5H13.5C14.0523 5 14.5 5.44772 14.5 6C14.5 6.55228 14.0523 7 13.5 7H5.25C4.91848 7 4.60063 7.13179 4.36621 7.36621C4.13179 7.60063 4 7.91848 4 8.25V18.75C4 19.0815 4.13179 19.3994 4.36621 19.6338C4.60063 19.8682 4.91848 20 5.25 20H15.75L15.874 19.9941C16.16 19.9656 16.4288 19.8388 16.6338 19.6338C16.8682 19.3994 17 19.0815 17 18.75V10.5C17 9.94772 17.4477 9.5 18 9.5C18.5523 9.5 19 9.94772 19 10.5V18.75C19 19.612 18.6573 20.4384 18.0479 21.0479C17.4764 21.6193 16.7144 21.9563 15.9111 21.9961L15.75 22H5.25C4.38805 22 3.56164 21.6573 2.95215 21.0479C2.34266 20.4384 2 19.612 2 18.75ZM22 8.25C22 8.80228 21.5523 9.25 21 9.25C20.4477 9.25 20 8.80228 20 8.25V5.41406L8.20703 17.207C7.81651 17.5976 7.18349 17.5976 6.79297 17.207C6.40244 16.8165 6.40244 16.1835 6.79297 15.793L18.5859 4H15.75C15.1977 4 14.75 3.55228 14.75 3C14.75 2.44772 15.1977 2 15.75 2H21L21.1025 2.00488C21.6067 2.05621 22 2.48232 22 3V8.25Z" fill="black"/>
</svg>
