<svg width="24" height="24" viewBox="0 0 24 24" fill="none" xmlns="http://www.w3.org/2000/svg">
<path d="M13.2973 2C14.3355 2.00008 15.2238 2.75115 15.394 3.77637L15.6069 5.05664C15.6125 5.08524 15.6415 5.15292 15.7407 5.21094L16.0014 5.36133L16.0757 5.39746C16.1433 5.42094 16.1911 5.41216 16.2095 5.40527L17.4262 4.94922C17.897 4.7725 18.4156 4.76912 18.8891 4.93848C19.3035 5.08677 19.6602 5.35924 19.9116 5.7168L20.0132 5.87598L21.3091 8.12305L21.396 8.29004C21.5801 8.68642 21.6376 9.13145 21.5591 9.56445C21.4692 10.0588 21.2066 10.5048 20.8188 10.8242L20.8198 10.8252L19.8159 11.6523V11.6533C19.8 11.6664 19.7694 11.7035 19.7563 11.7725L19.7495 11.8516L19.7505 11.8564V12.1445L19.7495 12.1494C19.7477 12.2389 19.7734 12.2952 19.7954 12.3252L19.8159 12.3467L20.8198 13.1738L20.8208 13.1748L20.9634 13.3037C21.5977 13.9311 21.7737 14.8929 21.3989 15.7041L21.31 15.876L20.0122 18.123C19.7607 18.5587 19.3626 18.8907 18.8891 19.0605C18.4748 19.2091 18.0262 19.225 17.605 19.1084L17.4262 19.0508L16.2095 18.5947C16.1855 18.5858 16.1098 18.5733 16.0034 18.6357L16.0044 18.6367C15.9208 18.6876 15.836 18.7366 15.7505 18.7842L15.7485 18.7852C15.6449 18.8424 15.6121 18.9121 15.6059 18.9424L15.6069 18.9434L15.394 20.2236C15.2237 21.2508 14.3347 21.9999 13.2973 22H10.7036C9.66391 22 8.77857 21.248 8.60691 20.2256V20.2236L8.39402 18.9434V18.9424C8.38963 18.9161 8.36053 18.8437 8.25144 18.7832V18.7822C8.16672 18.7355 8.08234 18.6877 7.99949 18.6377V18.6387C7.8941 18.5751 7.81754 18.5839 7.79051 18.5938L7.79148 18.5947L6.57371 19.0508L6.57273 19.0498C6.10225 19.226 5.58482 19.2308 5.1118 19.0615C4.63844 18.8921 4.24056 18.5602 3.98875 18.125L3.98777 18.124L2.6909 15.877C2.43965 15.4413 2.35111 14.9304 2.4409 14.4355C2.53082 13.9406 2.79359 13.4933 3.18211 13.1738H3.18113L4.18504 12.3467H4.18601L4.20457 12.3262C4.21898 12.3065 4.23556 12.2743 4.24461 12.2275L4.25144 12.1465C4.24966 12.0492 4.24966 11.9517 4.25144 11.8545L4.24461 11.7734C4.23132 11.7035 4.2013 11.6659 4.18504 11.6523V11.6533L3.18113 10.8262L3.18211 10.8252C2.79413 10.5058 2.53177 10.0599 2.44187 9.56543C2.35196 9.0709 2.44008 8.56059 2.6909 8.125V8.12402L3.98777 5.87695L4.08934 5.71875C4.34057 5.36068 4.69716 5.08708 5.1118 4.93848C5.58529 4.76882 6.10375 4.77266 6.57469 4.94922H6.57566L7.79148 5.40527H7.79051C7.81725 5.41512 7.89368 5.42512 7.99949 5.36133C8.0859 5.30867 8.17246 5.26055 8.24266 5.2207L8.2534 5.21387L8.3198 5.16895C8.37345 5.1227 8.3907 5.07747 8.39402 5.05762V5.05664L8.60789 3.77539C8.77847 2.75054 9.6666 2 10.7046 2H13.2973ZM10.7046 4C10.6429 4 10.5904 4.04491 10.5805 4.10352V4.10449L10.3667 5.38574C10.2475 6.10224 9.78086 6.6511 9.22898 6.95898L9.22996 6.95996C9.15352 7.00334 9.09346 7.03714 9.03758 7.07129L9.03269 7.07422C8.48895 7.40214 7.77586 7.53444 7.09031 7.27832H7.08933L5.87351 6.82227H5.87254C5.84488 6.81188 5.81442 6.81136 5.7866 6.82129C5.77275 6.82625 5.75965 6.83351 5.74851 6.84277L5.72019 6.87695L4.42332 9.12402C4.40899 9.14943 4.40345 9.17928 4.40867 9.20801C4.41134 9.22258 4.41688 9.23646 4.4243 9.24902L4.45262 9.28223L5.45652 10.1094H5.4575L5.55906 10.1992C5.98394 10.5977 6.20067 11.1286 6.24363 11.6514L6.25144 11.8916C6.25011 11.9642 6.25011 12.0368 6.25144 12.1094L6.24363 12.3486C6.1975 12.9099 5.95062 13.4854 5.45652 13.8916L5.45555 13.8906L4.45262 14.7178V14.7188C4.42976 14.7375 4.41396 14.7639 4.40867 14.793C4.40352 14.8218 4.40877 14.8515 4.42332 14.877L5.71922 17.123H5.72019C5.73499 17.1486 5.75782 17.1687 5.78562 17.1787C5.81337 17.1886 5.84395 17.188 5.87156 17.1777H5.87254L7.08933 16.7217H7.09031L7.21922 16.6777C7.77826 16.5086 8.34717 16.5883 8.82078 16.8125L9.03269 16.9258L9.21922 17.0332L9.22117 17.0342L9.4243 17.1611C9.8878 17.4826 10.2619 17.9837 10.3667 18.6152L10.5796 19.8945L10.5942 19.9365C10.6163 19.9752 10.6582 20 10.7036 20H13.2973C13.3598 19.9999 13.4107 19.9551 13.4204 19.8965V19.8955L13.6333 18.6152L13.6343 18.6133L13.6606 18.4805C13.814 17.8259 14.2599 17.3231 14.7807 17.0352C14.8427 17.0007 14.9038 16.9646 14.9643 16.9277L14.9692 16.9248L15.1802 16.8115C15.6899 16.5707 16.3107 16.497 16.9106 16.7217L18.1284 17.1777L18.1714 17.1855C18.1858 17.1856 18.2005 17.1827 18.2143 17.1777C18.242 17.1677 18.265 17.1485 18.2798 17.123H18.2807L19.5776 14.876L19.5923 14.8359C19.5993 14.7938 19.5846 14.7481 19.5483 14.7178L18.5454 13.8916L18.4429 13.8018C17.951 13.3417 17.7378 12.703 17.7505 12.1064V11.8887C17.7385 11.2534 17.9822 10.5716 18.5454 10.1084L19.5473 9.28223L19.5483 9.28125L19.5766 9.24805C19.5839 9.23557 19.5887 9.22146 19.5913 9.20703C19.5939 9.19271 19.5947 9.17819 19.5923 9.16406L19.5766 9.12305L18.2807 6.87598V6.875C18.2659 6.85004 18.2427 6.83108 18.2153 6.82129C18.1875 6.81133 18.1571 6.81187 18.1294 6.82227H18.1284L16.9106 7.27832C16.3109 7.50289 15.69 7.42895 15.1802 7.1875L14.9692 7.07422C14.9008 7.03297 14.843 6.99961 14.7895 6.9707L14.7807 6.96582C14.2257 6.65819 13.7555 6.10643 13.6343 5.38672L13.6333 5.38477L13.4204 4.10449V4.10352C13.4105 4.045 13.3589 4.00008 13.2973 4H10.7046Z" fill="black"/>
<path d="M13.9902 11.8027C13.9449 11.3447 13.7423 10.9142 13.4141 10.5859C13.039 10.2109 12.5304 10 12 10C11.4696 10 10.961 10.2109 10.5859 10.5859C10.2109 10.961 10 11.4696 10 12C10 12.5304 10.2109 13.039 10.5859 13.4141C10.961 13.7891 11.4696 14 12 14C12.5304 14 13.039 13.7891 13.4141 13.4141C13.7891 13.039 14 12.5304 14 12L13.9902 11.8027ZM16 12C16 13.0609 15.5783 14.078 14.8281 14.8281C14.078 15.5783 13.0609 16 12 16C10.9391 16 9.92202 15.5783 9.17188 14.8281C8.42173 14.078 8 13.0609 8 12C8 10.9391 8.42173 9.92202 9.17188 9.17188C9.92202 8.42173 10.9391 8 12 8C13.0609 8 14.078 8.42173 14.8281 9.17188C15.5783 9.92202 16 10.9391 16 12Z" fill="black"/>
</svg>
