<svg width="24" height="24" viewBox="0 0 24 24" fill="none" xmlns="http://www.w3.org/2000/svg">
<path d="M13.6211 7.78513C14.4152 8.16429 15.1068 8.7288 15.6377 9.43063C16.1686 10.1325 16.5231 10.9519 16.6719 11.8193C16.8206 12.6867 16.759 13.5773 16.4922 14.416C16.2254 15.2547 15.7612 16.0175 15.1387 16.6396L15.1377 16.6386L10.6387 21.1386C9.67161 22.1057 8.38197 22.6758 7.02246 22.7431L6.75 22.75C5.29131 22.75 3.89278 22.1701 2.86133 21.1386C1.82989 20.1072 1.25 18.7087 1.25 17.25C1.25001 15.7913 1.82988 14.3927 2.86133 13.3613L4.61816 11.6035L4.69434 11.5351C5.08705 11.2151 5.66621 11.2376 6.03223 11.6035C6.42275 11.994 6.42275 12.628 6.03223 13.0185L4.27539 14.7754C3.61901 15.4317 3.25001 16.3217 3.25 17.25C3.25 18.1782 3.61902 19.0682 4.27539 19.7246C4.93177 20.381 5.82174 20.75 6.75 20.75L6.92383 20.7461C7.78882 20.7031 8.6093 20.3399 9.22461 19.7246L13.7246 15.2246H13.7256L13.8691 15.0722C14.1934 14.7069 14.4384 14.2765 14.5869 13.8095C14.7566 13.2759 14.7958 12.7091 14.7012 12.1572C14.6065 11.6054 14.3807 11.0842 14.043 10.6377C13.7051 10.191 13.2642 9.8321 12.7588 9.59079L13.1904 8.68845L13.6211 7.78513ZM20.75 6.74997C20.75 5.82171 20.381 4.93174 19.7246 4.27536C19.1093 3.66007 18.2888 3.29684 17.4238 3.25388L17.25 3.24997C16.3799 3.24998 15.5434 3.57409 14.9014 4.15524L14.7754 4.27536L10.2754 8.77536H10.2744C9.87836 9.17121 9.58283 9.65679 9.41309 10.1904C9.24341 10.724 9.2042 11.2909 9.29883 11.8427C9.39346 12.3946 9.61934 12.9157 9.95703 13.3623C10.2949 13.809 10.7358 14.1678 11.2412 14.4091C11.7395 14.6471 11.9508 15.2448 11.7129 15.7431C11.4749 16.2415 10.8773 16.4528 10.3789 16.2148C9.58476 15.8356 8.89321 15.2711 8.3623 14.5693C7.8314 13.8674 7.47686 13.048 7.32812 12.1806C7.1794 11.3132 7.24103 10.4227 7.50781 9.58395C7.74121 8.85022 8.12535 8.17466 8.63477 7.60056L8.86133 7.36032L13.3613 2.8613L13.5586 2.67282C14.5675 1.75929 15.8825 1.24998 17.25 1.24997L17.5225 1.25681C18.882 1.32418 20.1716 1.89426 21.1387 2.8613C22.1701 3.89275 22.75 5.29128 22.75 6.74997C22.75 8.20867 22.1701 9.60719 21.1387 10.6386L19.3818 12.3965L19.3066 12.4648C18.9139 12.7853 18.334 12.7625 17.9678 12.3965C17.5772 12.0059 17.5772 11.3719 17.9678 10.9814L19.7246 9.22458C20.381 8.5682 20.75 7.67823 20.75 6.74997ZM12.2881 8.25681C12.5262 7.75874 13.1229 7.54725 13.6211 7.78513L12.7588 9.59079C12.2605 9.35278 12.0502 8.75514 12.2881 8.25681Z" fill="black"/>
</svg>
