<svg width="24" height="24" viewBox="0 0 24 24" fill="none" xmlns="http://www.w3.org/2000/svg">
<path d="M7.24992 18.75V15C7.24992 14.4477 7.69764 14 8.24992 14C8.80221 14 9.24992 14.4477 9.24992 15V18.75C9.24992 19.0815 9.38171 19.3994 9.61614 19.6338C9.85056 19.8682 10.1684 20 10.4999 20H16.4999C16.8314 20 17.1493 19.8682 17.3837 19.6338C17.5887 19.4288 17.7156 19.16 17.7441 18.874L17.7499 18.75V5.25C17.7499 4.91848 17.6181 4.60063 17.3837 4.36621C17.1493 4.13179 16.8314 4 16.4999 4H10.4999C10.1684 4 9.85056 4.13179 9.61614 4.36621C9.38172 4.60063 9.24992 4.91848 9.24992 5.25V9C9.24992 9.55228 8.80221 10 8.24992 10C7.69764 10 7.24992 9.55228 7.24992 9V5.25C7.24992 4.38805 7.59258 3.56164 8.20207 2.95215C8.81157 2.34266 9.63797 2 10.4999 2H16.4999C17.3619 2 18.1883 2.34266 18.7978 2.95215C19.4073 3.56164 19.7499 4.38805 19.7499 5.25V18.75L19.746 18.9111C19.7062 19.7144 19.3692 20.4764 18.7978 21.0479C18.1883 21.6573 17.3619 22 16.4999 22H10.4999C9.63797 22 8.81157 21.6573 8.20207 21.0479C7.59258 20.4384 7.24992 19.612 7.24992 18.75ZM4.54289 8.29297C4.93342 7.90244 5.56643 7.90244 5.95696 8.29297C6.34748 8.68349 6.34748 9.31651 5.95696 9.70703L4.66399 11H14.9999C15.5522 11 15.9999 11.4477 15.9999 12C15.9999 12.5523 15.5522 13 14.9999 13H4.66399L5.95696 14.293L6.02532 14.3691C6.34567 14.7619 6.32307 15.3409 5.95696 15.707C5.59084 16.0731 5.01184 16.0957 4.61907 15.7754L4.54289 15.707L1.54289 12.707C1.15237 12.3165 1.15237 11.6835 1.54289 11.293L4.54289 8.29297Z" fill="black"/>
</svg>
