<svg width="24" height="24" viewBox="0 0 24 24" fill="none" xmlns="http://www.w3.org/2000/svg">
<path d="M7.25 5.99996C7.25 5.43623 7.29416 4.8825 7.37793 4.34175C6.63939 4.91646 5.99323 5.60835 5.46875 6.39547C4.51085 7.83312 3.99985 9.52241 4 11.25L4.01172 11.7002C4.24599 16.3236 8.06826 20 12.75 20L13.0732 19.9941C14.6876 19.9346 16.2566 19.4293 17.6045 18.5312C18.3918 18.0066 19.0834 17.3599 19.6582 16.6211C19.1108 16.7061 18.5566 16.7496 18 16.749V16.75C12.0627 16.75 7.25 11.9372 7.25 5.99996ZM9.25 5.99996C9.25 10.8327 13.1673 14.75 18 14.75H18.001L18.4336 14.7402C19.4413 14.6915 20.434 14.468 21.3672 14.0791C21.7412 13.9232 22.1724 14.0084 22.459 14.2949C22.7096 14.5456 22.8068 14.9072 22.7227 15.2441L22.6748 15.3867C21.8577 17.3454 20.479 19.0185 18.7129 20.1953C17.0572 21.2984 15.1305 21.9199 13.1475 21.9931L12.75 22C6.9984 22 2.30179 17.4836 2.01367 11.8037L2 11.25C1.99984 9.12775 2.62797 7.05316 3.80469 5.28707C4.98147 3.52092 6.6546 2.14225 8.61328 1.32515L8.75586 1.27828C9.09295 1.19402 9.4543 1.29018 9.70508 1.54097C9.95583 1.79176 10.052 2.15313 9.96777 2.49019L9.9209 2.63277C9.48894 3.66786 9.25001 4.80446 9.25 5.99996Z" fill="black"/>
</svg>
