<svg width="24" height="24" viewBox="0 0 24 24" fill="none" xmlns="http://www.w3.org/2000/svg">
<path d="M0 11.1247C0 10.6165 0.338823 10.2776 0.847059 10.2776H10.3341V0.847058C10.3341 0.338821 10.6729 0 11.1812 0H12.8753C13.3835 0 13.7224 0.338821 13.7224 0.847058V10.2776H23.1529C23.6612 10.2776 24 10.6165 24 11.1247V12.8188C24 13.3271 23.6612 13.6659 23.1529 13.6659H13.7224V23.1529C13.7224 23.6612 13.3835 24 12.8753 24H11.1812C10.6729 24 10.3341 23.6612 10.3341 23.1529V13.6659H0.847059C0.338823 13.6659 0 13.3271 0 12.8188V11.1247Z" fill="black"/>
</svg>
