<svg width="24" height="24" viewBox="0 0 24 24" fill="none" xmlns="http://www.w3.org/2000/svg">
<path d="M16.9957 10.7009C16.9957 9.03143 16.3321 7.43063 15.1516 6.25012C13.9711 5.06962 12.3703 4.40604 10.7009 4.40603C9.03138 4.40603 7.4306 5.06961 6.25009 6.25012C5.06958 7.43063 4.406 9.03141 4.406 10.7009C4.40601 12.3704 5.06959 13.9712 6.25009 15.1517C7.43059 16.3322 9.0314 16.9958 10.7009 16.9958C12.3703 16.9958 13.9711 16.3322 15.1516 15.1517C16.3321 13.9712 16.9957 12.3704 16.9957 10.7009ZM19.9009 10.7009C19.9009 12.6512 19.2795 14.5361 18.1498 16.0958L22.5745 20.5205L22.6744 20.6306C23.1396 21.2011 23.1063 22.0428 22.5745 22.5746C22.0428 23.1063 21.2011 23.1396 20.6306 22.6744L20.5205 22.5746L16.0958 18.1499C14.5361 19.2795 12.6512 19.9009 10.7009 19.9009C8.26088 19.9009 5.92025 18.931 4.19493 17.2057C2.46993 15.4804 1.50087 13.1406 1.50085 10.7009C1.50085 8.26092 2.4696 5.92028 4.19493 4.19496L4.52629 3.88061C6.2139 2.35266 8.41351 1.50089 10.7009 1.50089C13.1406 1.5009 15.4804 2.46996 17.2057 4.19496C18.931 5.92028 19.9009 8.26091 19.9009 10.7009Z" fill="black"/>
</svg>
