<svg width="24" height="24" viewBox="0 0 24 24" fill="none" xmlns="http://www.w3.org/2000/svg">
<path d="M12.1164 2.15408C12.347 2.17125 12.5707 2.24009 12.7717 2.35428L12.8703 2.41483L12.9641 2.48318C13.1751 2.64868 13.3405 2.86605 13.4436 3.11502L15.465 7.9783L20.718 8.40018L20.8459 8.41483C22.1375 8.6182 22.6331 10.2699 21.6096 11.1453L21.6086 11.1443L17.6076 14.573L18.8312 19.6961L18.8537 19.8094C18.8968 20.0748 18.8703 20.3479 18.7766 20.6013C18.6695 20.8908 18.4794 21.1426 18.2297 21.324C17.9799 21.5054 17.6817 21.6087 17.3732 21.6209C17.0649 21.633 16.7596 21.5535 16.4963 21.3924V21.3914L12.0002 18.6463L7.50312 21.3924L7.5041 21.3933C7.24087 21.5544 6.93547 21.634 6.62715 21.6219C6.31874 21.6096 6.02045 21.5063 5.7707 21.325C5.52096 21.1436 5.33086 20.8918 5.22383 20.6023C5.11679 20.3127 5.09833 19.9973 5.17012 19.6971L6.3918 14.573L2.39277 11.1463L2.30781 11.0681C2.11623 10.8788 1.97614 10.6421 1.90254 10.3816C1.8186 10.0842 1.82463 9.7683 1.92012 9.4744L1.96015 9.366C2.06206 9.11683 2.22714 8.89763 2.43965 8.73026L2.53242 8.6619C2.75506 8.51176 3.01347 8.42151 3.28242 8.40018L8.53437 7.9783L10.5568 3.11502C10.6746 2.83025 10.8741 2.58654 11.1301 2.41483L11.2287 2.35428C11.4633 2.22095 11.729 2.15021 12.0002 2.15018L12.1164 2.15408ZM10.2785 8.99393C10.1681 9.25934 9.98665 9.48902 9.7541 9.65799C9.57958 9.78475 9.38122 9.87358 9.17207 9.91971L8.96015 9.95193L4.48945 10.3094L7.89472 13.2263L8.04805 13.3767C8.14265 13.4832 8.22198 13.6022 8.28437 13.7303L8.36543 13.9295L8.41816 14.1375C8.45606 14.3479 8.45017 14.5647 8.40058 14.7742L8.39961 14.7762L7.35957 19.1365L11.1857 16.8006L11.3762 16.7019C11.5723 16.6164 11.7847 16.5721 12.0002 16.5721L12.2141 16.5867C12.4261 16.616 12.6307 16.6882 12.8146 16.8006L16.6408 19.1365L15.6008 14.7762L15.5998 14.7732C15.534 14.494 15.5468 14.2021 15.6359 13.9295L15.716 13.7312C15.8095 13.5391 15.9413 13.3672 16.1047 13.2273L19.51 10.3094L15.0402 9.95193V9.95096C14.7538 9.92797 14.4788 9.82686 14.2463 9.65799C14.072 9.53131 13.926 9.37073 13.8176 9.18631L13.7219 8.99393L12.0002 4.85233L10.2785 8.99393ZM3.44258 10.3933L3.43965 10.3943C3.44284 10.3941 3.44623 10.3927 3.44941 10.3924L3.44258 10.3933Z" fill="white"/>
</svg>
