<svg width="32" height="32" viewBox="0 0 32 32" fill="none" xmlns="http://www.w3.org/2000/svg">
<path d="M14.75 28V25C14.75 24.3096 15.3096 23.75 16 23.75C16.6904 23.75 17.25 24.3096 17.25 25V28C17.25 28.6904 16.6904 29.25 16 29.25C15.3096 29.25 14.75 28.6904 14.75 28ZM8.75195 21.4805C9.24011 20.9923 10.0314 20.9923 10.5195 21.4805C11.0077 21.9686 11.0077 22.7599 10.5195 23.248L8.39844 25.3691C7.91028 25.8573 7.11901 25.8573 6.63086 25.3691C6.14271 24.881 6.14272 24.0897 6.63086 23.6016L8.75195 21.4805ZM21.4805 21.4805C21.9382 21.0227 22.6623 20.9938 23.1533 21.3945L23.248 21.4805L25.3691 23.6016L25.4551 23.6963C25.8555 24.1873 25.8268 24.9115 25.3691 25.3691C24.9115 25.8268 24.1873 25.8555 23.6963 25.4551L23.6016 25.3691L21.4805 23.248L21.3945 23.1533C20.9938 22.6623 21.0227 21.9382 21.4805 21.4805ZM19.7451 15.8145C19.6992 14.8875 19.3108 14.008 18.6514 13.3486C17.992 12.6892 17.1126 12.3008 16.1855 12.2549L16 12.25C15.0054 12.25 14.0519 12.6454 13.3486 13.3486C12.6454 14.0519 12.25 15.0054 12.25 16C12.25 16.9946 12.6454 17.9481 13.3486 18.6514C14.0519 19.3546 15.0054 19.75 16 19.75C16.9946 19.75 17.9481 19.3546 18.6514 18.6514C19.3546 17.9481 19.75 16.9946 19.75 16L19.7451 15.8145ZM7 14.75L7.12793 14.7568C7.75817 14.8209 8.25 15.3528 8.25 16C8.25 16.6472 7.75817 17.1791 7.12793 17.2432L7 17.25H4C3.30964 17.25 2.75 16.6904 2.75 16C2.75 15.3096 3.30964 14.75 4 14.75H7ZM28 14.75L28.1279 14.7568C28.7582 14.8209 29.25 15.3528 29.25 16C29.25 16.6472 28.7582 17.1791 28.1279 17.2432L28 17.25H25C24.3096 17.25 23.75 16.6904 23.75 16C23.75 15.3096 24.3096 14.75 25 14.75H28ZM6.63086 6.63086C7.08851 6.1732 7.81274 6.14445 8.30371 6.54492L8.39844 6.63086L10.5195 8.75195L10.6055 8.84668C11.0062 9.33765 10.9773 10.0618 10.5195 10.5195C10.0618 10.9773 9.33765 11.0062 8.84668 10.6055L8.75195 10.5195L6.63086 8.39844L6.54492 8.30371C6.14445 7.81274 6.1732 7.08851 6.63086 6.63086ZM23.6016 6.63086C24.0897 6.14272 24.881 6.14271 25.3691 6.63086C25.8573 7.11901 25.8573 7.91028 25.3691 8.39844L23.248 10.5195C22.7599 11.0077 21.9686 11.0077 21.4805 10.5195C20.9923 10.0314 20.9923 9.24011 21.4805 8.75195L23.6016 6.63086ZM14.75 7V4C14.75 3.30964 15.3096 2.75 16 2.75C16.6904 2.75 17.25 3.30964 17.25 4V7C17.25 7.69036 16.6904 8.25 16 8.25C15.3096 8.25 14.75 7.69036 14.75 7ZM22.2422 16.3096C22.1656 17.8545 21.5179 19.32 20.4189 20.4189C19.2468 21.591 17.6576 22.25 16 22.25C14.3424 22.25 12.7532 21.591 11.5811 20.4189C10.409 19.2468 9.75 17.6576 9.75 16C9.75 14.3424 10.409 12.7532 11.5811 11.5811C12.7532 10.409 14.3424 9.75 16 9.75L16.3096 9.75781C17.8545 9.83437 19.32 10.4821 20.4189 11.5811C21.591 12.7532 22.25 14.3424 22.25 16L22.2422 16.3096Z" fill="black"/>
</svg>
