<svg width="24" height="24" viewBox="0 0 24 24" fill="none" xmlns="http://www.w3.org/2000/svg">
<path d="M10.3079 1.27685C11.4355 1.24081 12.5649 1.24081 13.6926 1.27685L13.6916 1.27783C15.4373 1.33262 16.7488 2.78304 16.7493 4.47607C17.6281 4.56079 18.505 4.66926 19.3782 4.80126L20.4211 4.97118C20.9653 5.06561 21.33 5.58328 21.2356 6.12743C21.1445 6.65087 20.6619 7.00571 20.1409 6.94775L19.1575 19.7495C19.0945 20.5659 18.7252 21.329 18.1243 21.8852C17.5984 22.3719 16.9288 22.6693 16.2209 22.7358L15.9163 22.7505H8.08422C7.26555 22.7506 6.47706 22.4413 5.87621 21.8852C5.35037 21.3985 5.00208 20.7537 4.88109 20.0532L4.84301 19.7495L3.85863 6.94677C3.33795 7.00419 2.85589 6.64956 2.76488 6.12646C2.67046 5.58231 3.03519 5.06464 3.57934 4.97021L4.62231 4.80126L5.50707 4.67529C6.08687 4.59839 6.66806 4.5322 7.25024 4.47607C7.25073 2.78465 8.56241 1.33216 10.3079 1.27685ZM15.6731 6.39013C13.5337 6.22479 11.3859 6.20361 9.24438 6.32763L8.32738 6.39013C7.49642 6.45446 6.66733 6.54061 5.84106 6.64892L6.83715 19.5962L6.8518 19.7124C6.89827 19.982 7.03227 20.2302 7.23461 20.4175C7.46573 20.6313 7.76932 20.7506 8.08422 20.7505H15.9163L16.0344 20.7446C16.3064 20.7189 16.5637 20.6045 16.7659 20.4175C16.997 20.2035 17.1391 19.9102 17.1633 19.5962L18.1584 6.64892C17.6156 6.57778 17.0716 6.51652 16.5266 6.46435L15.6731 6.39013ZM10.6057 17.9614L10.6047 18.064C10.573 18.5698 10.1621 18.9796 9.64477 18.9995C9.1273 19.0194 8.68689 18.6422 8.61645 18.1401L8.60668 18.0386L8.26098 9.03857L10.259 8.96142L10.6057 17.9614ZM14.7786 8.00048C15.3304 8.0217 15.7607 8.48669 15.7395 9.03857L15.3938 18.0386L15.384 18.1401C15.3136 18.6422 14.8732 19.0194 14.3557 18.9995C13.8039 18.9782 13.3736 18.5133 13.3948 17.9614L13.7414 8.96142C13.7628 8.40968 14.2268 7.97933 14.7786 8.00048ZM9.22191 8.00048C9.77368 7.97933 10.2377 8.40968 10.259 8.96142L8.26098 9.03857C8.23976 8.48669 8.67004 8.0217 9.22191 8.00048ZM11.1858 3.25634L10.3723 3.27587C9.80644 3.29374 9.33055 3.73409 9.26 4.3247C11.0851 4.22385 12.9144 4.22388 14.7395 4.3247C14.669 3.73362 14.1953 3.29375 13.6291 3.27587C12.8152 3.24986 11.9999 3.24333 11.1858 3.25634Z"/>
</svg>
