<svg width="24" height="24" viewBox="0 0 24 24" fill="none" xmlns="http://www.w3.org/2000/svg">
<path fill-rule="evenodd" clip-rule="evenodd" d="M13.4341 6.03573C10.8361 5.55737 8.45415 7.0859 7.97892 9.21958C7.87705 9.67694 7.47114 10.0023 7.00237 10.0023C4.9122 10.0023 3.30071 11.6052 3.30071 13.5023C3.30071 15.3881 4.92085 17.0023 7.01238 17.0023C7.56491 17.0023 8.01283 17.45 8.01283 18.0023C8.01283 18.5546 7.56491 19.0023 7.01238 19.0023C3.90156 19.0023 1.2998 16.5765 1.2998 13.5023C1.2998 10.6747 3.47888 8.40723 6.241 8.05102C7.30488 5.15066 10.5739 3.47603 13.7953 4.06859C16.8629 4.62573 19.1289 7.11069 19.114 10.0037C21.5421 10.0652 23.4998 12.0472 23.4998 14.5023C23.4998 16.9846 21.4812 19.0023 18.9978 19.0023H17.9973C17.4448 19.0023 16.9969 18.5546 16.9969 18.0023C16.9969 17.45 17.4448 17.0023 17.9973 17.0023H18.9978C20.3761 17.0023 21.4989 15.88 21.4989 14.5023C21.4989 13.1164 20.378 12.0023 18.9978 12.0023H17.9973C17.6932 12.0023 17.4056 11.864 17.2157 11.6265C17.0259 11.389 16.9544 11.0781 17.0215 10.7816C17.495 8.69037 16.0071 6.50257 13.4367 6.0362L13.4341 6.03573Z" fill="#171717"/>
<path fill-rule="evenodd" clip-rule="evenodd" d="M11.3072 11.2952C11.6979 10.9046 12.3314 10.9046 12.7221 11.2952L15.7234 14.2952C16.1141 14.6857 16.1141 15.3189 15.7234 15.7094C15.3327 16.0999 14.6993 16.0999 14.3086 15.7094L12.0146 13.4165L9.72071 15.7094C9.33 16.0999 8.69655 16.0999 8.30585 15.7094C7.91515 15.3189 7.91515 14.6857 8.30585 14.2952L11.3072 11.2952Z" fill="#171717"/>
<path fill-rule="evenodd" clip-rule="evenodd" d="M12.0146 11.0023C12.5672 11.0023 13.0151 11.45 13.0151 12.0023V21.0023C13.0151 21.5546 12.5672 22.0023 12.0146 22.0023C11.4621 22.0023 11.0142 21.5546 11.0142 21.0023V12.0023C11.0142 11.45 11.4621 11.0023 12.0146 11.0023Z" fill="#171717"/>
</svg>
