<svg width="24" height="24" viewBox="0 0 24 24" fill="none" xmlns="http://www.w3.org/2000/svg">
<path d="M12.3794 2.00714C14.2735 2.07913 16.1114 2.6889 17.6762 3.76788C19.3453 4.9188 20.6253 6.54972 21.3462 8.44464C22.067 10.3398 22.1947 12.4098 21.7124 14.3792C21.2301 16.3481 20.162 18.1243 18.6469 19.472C16.8179 21.1032 14.451 22.0024 12.0005 21.9993L12.0014 22.0003L11.9995 21.9993L11.9985 22.0003V21.9993C9.54789 22.0024 7.18198 21.1031 5.35299 19.472L5.07467 19.2142C3.70721 17.9015 2.73875 16.2254 2.28658 14.3792C1.80429 12.4098 1.93191 10.3398 2.65279 8.44464C3.37366 6.54972 4.65366 4.9188 6.32272 3.76788C7.99197 2.61691 9.97187 2.00031 11.9995 2.00031L12.3794 2.00714ZM11.6235 16.761C10.7485 16.811 9.89107 17.0376 9.10397 17.429C8.49919 17.7298 7.94823 18.1235 7.46725 18.5921C8.79354 19.506 10.3722 20.0028 11.9985 20.0003H12.0014L12.3676 19.9925C13.8635 19.9258 15.3054 19.4368 16.5317 18.5921C16.0508 18.1238 15.5005 17.7297 14.896 17.429C13.9965 16.9817 13.005 16.7494 12.0005 16.7503H11.9995L11.6235 16.761ZM11.6958 4.00616C10.1804 4.06372 8.71036 4.55118 7.45846 5.41437C6.12315 6.33509 5.09866 7.63961 4.52193 9.15558C3.94523 10.6717 3.84313 12.3281 4.22897 13.9036C4.53431 15.1502 5.13475 16.2993 5.97213 17.2591C6.62446 16.6022 7.3798 16.0526 8.21334 15.638C9.38962 15.053 10.6858 14.7493 11.9995 14.7503C13.3135 14.7492 14.61 15.0529 15.7866 15.638C16.6197 16.0523 17.3747 16.6016 18.0268 17.2581C18.8638 16.2985 19.4646 15.1504 19.77 13.9036C20.1558 12.3281 20.0537 10.6717 19.477 9.15558C18.9003 7.63961 17.8758 6.33509 16.5405 5.41437C15.2051 4.49361 13.6215 4.00031 11.9995 4.00031L11.6958 4.00616ZM13.9897 9.55206C13.9442 9.09451 13.7424 8.66431 13.4145 8.33624C13.0863 8.00808 12.6555 7.80555 12.1977 7.76007L12.0005 7.75031C11.47 7.75031 10.9605 7.96117 10.5854 8.33624C10.2106 8.71128 10.0005 9.22006 10.0005 9.75031C10.0005 10.2806 10.2105 10.7894 10.5854 11.1644C10.9605 11.5394 11.47 11.7503 12.0005 11.7503C12.5307 11.7502 13.0396 11.5393 13.4145 11.1644C13.7895 10.7894 14.0004 10.2806 14.0005 9.75031L13.9897 9.55206ZM15.9946 9.94855C15.9455 10.9371 15.5317 11.8752 14.8286 12.5784C14.0785 13.3285 13.0611 13.7502 12.0005 13.7503C10.9396 13.7503 9.92149 13.3286 9.17135 12.5784C8.42134 11.8284 8.00053 10.811 8.00045 9.75031C8.00045 8.68944 8.4212 7.67135 9.17135 6.9212C9.92149 6.17111 10.9396 5.75031 12.0005 5.75031L12.1987 5.75519C13.1872 5.80432 14.1254 6.2181 14.8286 6.9212C15.5787 7.67135 16.0005 8.68944 16.0005 9.75031L15.9946 9.94855Z" fill="black"/>
</svg>
