<svg width="24" height="24" viewBox="0 0 24 24" fill="none" xmlns="http://www.w3.org/2000/svg">
<path d="M11.9999 3.5C17.0812 3.5 21.39 6.79526 22.912 11.3623H22.911C23.0499 11.7763 23.0499 12.2228 22.911 12.6357C21.3921 17.2038 17.0819 20.5 11.9999 20.5C6.9187 20.4999 2.60975 17.2048 1.08774 12.6377H1.08677C0.949605 12.2254 0.949582 11.7795 1.08677 11.3672L1.23716 10.9434C2.87551 6.59525 7.07518 3.50006 11.9999 3.5ZM11.9999 5.5C7.93447 5.50006 4.46333 8.05455 3.10923 11.6475L2.9852 11.998V12.0059H2.98423C4.2422 15.7807 7.80512 18.4999 11.9999 18.5C16.1964 18.5 19.7592 15.778 21.0135 12.002L21.0155 11.998L21.0145 11.9941C19.7565 8.21918 16.1945 5.5 11.9999 5.5Z" fill="black"/>
<path d="M13.9902 11.8027C13.9449 11.3447 13.7423 10.9142 13.4141 10.5859C13.039 10.2109 12.5304 10 12 10C11.4696 10 10.961 10.2109 10.5859 10.5859C10.2109 10.961 10 11.4696 10 12C10 12.5304 10.2109 13.039 10.5859 13.4141C10.961 13.7891 11.4696 14 12 14C12.5304 14 13.039 13.7891 13.4141 13.4141C13.7891 13.039 14 12.5304 14 12L13.9902 11.8027ZM16 12C16 13.0609 15.5783 14.078 14.8281 14.8281C14.078 15.5783 13.0609 16 12 16C10.9391 16 9.92202 15.5783 9.17188 14.8281C8.42173 14.078 8 13.0609 8 12C8 10.9391 8.42173 9.92202 9.17188 9.17188C9.92202 8.42173 10.9391 8 12 8C13.0609 8 14.078 8.42173 14.8281 9.17188C15.5783 9.92202 16 10.9391 16 12Z" fill="black"/>
</svg>
