<svg width="216" height="38" viewBox="0 0 216 38" fill="none" xmlns="http://www.w3.org/2000/svg">
<path d="M179.541 28.2382V8.32519H189.04C190.21 8.32519 192.527 9.32625 193.472 10.05C197.612 13.2224 197.997 20.6574 195.107 24.7416C191.573 29.7327 184.786 27.8716 179.541 28.2382ZM183.865 24.704H187.992C188.584 24.704 189.989 24.0413 190.478 23.6512C193.274 21.4329 193.274 14.637 190.196 12.6725C189.801 12.4234 188.541 11.8641 188.123 11.8641H183.865V24.704Z" fill="black"/>
<path d="M51.9891 8.32519C52.5013 8.38159 53.4836 8.73407 53.9771 8.95967C58.8132 11.1733 58.5876 18.3733 53.4883 20.0653L58.0847 28.2429H53.4319L49.4371 20.9065H46.8193V28.2429H42.4955V8.32519H51.9938H51.9891ZM46.8146 17.4992H51.0726C51.1666 17.4992 51.7212 17.1984 51.8622 17.1091C53.6105 16.0564 53.6105 13.1707 51.8622 12.1226C51.7212 12.038 51.1666 11.7325 51.0726 11.7325H46.8146V17.4945V17.4992Z" fill="black"/>
<path d="M203.022 8.32519V17.6261L210.424 8.32519H215.335L208.389 16.766L215.861 28.2382H210.95L205.447 19.9901L203.022 22.6737V28.2382H198.698V8.32519H203.022Z" fill="black"/>
<path d="M94.3342 13.8615L96.8909 23.5572L99.3066 13.9226L103.231 13.8756L105.717 23.2423L105.994 23.4256L108.551 13.8615H112.414L107.639 28.4121L103.785 28.3886L101.215 19.2334L98.6533 28.398L94.6115 28.3933L90.0104 13.8615H94.3342Z" fill="black"/>
<path d="M160.888 8.32519V28.2382H156.959L156.827 26.927C153.636 29.8596 148.523 28.8727 146.76 24.8779C145.51 22.0486 145.67 17.9551 147.724 15.53C149.778 13.1049 154.228 12.4469 156.7 14.7451V8.32519H160.893H160.888ZM152.997 16.6156C149.839 17.0715 149.467 22.0627 151.004 24.1729C152.217 25.8366 155.37 25.7144 156.667 24.2199L156.691 17.8329C156.014 16.6297 154.266 16.437 152.997 16.6203V16.6156Z" fill="black"/>
<path d="M88.4876 8.32519V28.2382H84.6902L84.5586 26.927L82.5941 28.1677C75.7136 30.5129 72.0055 23.2799 74.2426 17.4569C75.7747 13.4715 81.0103 11.8641 84.3001 14.7404V8.32049H88.4923L88.4876 8.32519ZM84.2672 24.4126L84.2296 17.4945C82.5941 16.1738 79.7977 16.1033 78.5523 17.9739C77.6781 19.2851 77.6499 21.8183 78.2045 23.2564C79.2102 25.8789 82.2322 25.8554 84.2672 24.4126Z" fill="black"/>
<path d="M176.472 12.649C174.254 11.85 170.964 10.9101 168.676 11.7278C166.824 12.3858 166.843 14.4114 168.417 15.4031C171.11 17.1044 175.984 16.39 177.196 20.6386C179.358 28.2335 170.447 29.8126 165.01 27.9797C164.601 27.8387 163.219 27.2748 162.984 26.9928C162.58 26.504 163.186 24.14 163.116 23.3927C163.76 23.6982 164.375 24.0272 165.047 24.2763C166.861 24.9531 169.46 25.4183 171.34 24.8685C173.22 24.3186 173.723 22.1567 171.932 21.0569C168.624 19.0313 163.243 19.9431 162.857 14.2798C162.345 6.79306 172.069 6.98105 176.816 9.23225L176.477 12.6443L176.472 12.649Z" fill="black"/>
<path d="M62.4978 22.3447C63.198 26.5228 68.9036 25.6016 71.6013 24.0507L71.3381 27.3264C66.9532 29.7327 59.8988 29.1312 58.6063 23.4256C57.1964 17.1984 61.1019 11.8312 67.7662 13.6125C70.0221 14.214 72.1934 16.6156 72.1934 19.0125V22.1567L71.9961 22.3541H62.4978V22.3447ZM68.2597 19.7222C68.6404 15.4078 62.244 15.4501 62.4978 19.7222H68.2597Z" fill="black"/>
<path d="M136.049 13.3446C142.3 12.7524 145.576 17.5039 144.241 23.3692C142.535 30.8654 130.222 30.386 129.526 22.1473C129.141 17.5556 131.185 13.8052 136.049 13.3446ZM136.707 16.484C133.775 16.6955 133.53 19.6564 133.714 22.0204C134.08 26.6826 139.772 26.5416 140.256 22.3964C140.571 19.7081 140.176 16.2349 136.707 16.4887V16.484Z" fill="black"/>
<path d="M119.558 13.3446C125.879 12.696 129.343 17.7342 127.74 23.623C125.823 30.6633 114.52 30.3578 113.204 22.763C112.391 18.0773 114.567 13.8521 119.558 13.3399V13.3446ZM120.211 16.484C116.978 16.7801 116.715 21.1697 117.65 23.5572C118.679 26.1797 122.561 26.1186 123.539 23.482C124.516 20.8454 124.009 16.1362 120.211 16.484Z" fill="black"/>
<g clip-path="url(#clip0_5_4)">
<path d="M9.00299 5.81158L16.3089 10.7291L23.83 5.95646L16.3089 1.03897L9.00299 5.81158Z" fill="#F3B15C"/>
<path d="M8.71326 31.4132L16.4538 26.3508L23.9749 31.4877L16.3834 36.55L8.71326 31.4132Z" fill="#F3B15C"/>
<path d="M0.976846 10.9443L8.28271 16.0108L4.44972 18.5399L8.35308 21.4333L0.83197 26.3508L0.976846 10.9443Z" fill="#D54B40"/>
<path d="M24.7696 15.8659L31.7857 10.9443V26.3508L24.2646 21.0732L28.4991 18.4944L24.7696 15.8659Z" fill="#D54B40"/>
<path d="M16.3088 10.7291L23.8299 5.95646L31.7857 10.9443L24.7696 15.8659L16.3088 10.7291Z" fill="#E47947"/>
<path d="M0.976868 10.9443L9.00297 5.81158L16.3088 10.7291L8.28274 16.0108L0.976868 10.9443Z" fill="#E47947"/>
<path d="M0.83197 26.3508L8.35308 21.4333L16.4537 26.3508L8.7132 31.4132L0.83197 26.3508Z" fill="#E47947"/>
<path d="M24.2646 21.0732L31.7857 26.3508L23.9748 31.4877L16.4537 26.3508L24.2646 21.0732Z" fill="#E47947"/>
<path d="M16.3089 10.7291L28.4991 18.4944L16.4537 26.3508L4.44977 18.5399L16.3089 10.7291Z" fill="#802C43"/>
<path d="M16.342 37.5352L0 26.9262V10.4186L16.342 0L32.5929 10.4186V26.922L16.342 37.531V37.5352ZM1.65572 26.0279L16.342 35.5607L30.9371 26.0279V11.3251L16.342 1.96617L1.65572 11.3251V26.0279Z" fill="black"/>
<path d="M31.2759 10.2048L24.1084 15.4661L25.0881 16.8008L32.2557 11.5396L31.2759 10.2048Z" fill="black"/>
<path d="M23.6934 32.1624L2.84369 18.6765L23.6023 5.18655L24.5047 6.57735L5.89022 18.6724L24.5957 30.7716L23.6934 32.1624Z" fill="black"/>
<path d="M8.9947 32.2493L8.0882 30.8626L26.9758 18.5027L8.1834 6.49043L9.07749 5.09548L30.0224 18.4861L8.9947 32.2493Z" fill="black"/>
<path d="M1.28775 10.1795L0.365723 11.5547L8.07735 16.725L8.99938 15.3498L1.28775 10.1795Z" fill="black"/>
<path d="M8.18805 20.7881L0.384644 25.7805L1.27694 27.1752L9.08034 22.1828L8.18805 20.7881Z" fill="black"/>
<path d="M24.7133 20.4475L23.7542 21.7971L31.2851 27.149L32.2442 25.7994L24.7133 20.4475Z" fill="black"/>
</g>
<defs>
<clipPath id="clip0_5_4">
<rect width="32.5929" height="37.5352" fill="white"/>
</clipPath>
</defs>
</svg>
