<?xml version="1.0" encoding="UTF-8"?>
<!-- This file is generated by npm run icons -->
<svg xmlns="http://www.w3.org/2000/svg" xmlns:xlink="http://www.w3.org/1999/xlink" width="0" height="0">
<defs>
<symbol viewBox="0 0 24 24" id="archive">
<path d="M20.75 4.875C20.75 4.80628 20.6937 4.75 20.625 4.75H3.375C3.30628 4.75 3.25 4.80628 3.25 4.875V6.375C3.25 6.44372 3.30628 6.5 3.375 6.5H20.625C20.6937 6.5 20.75 6.44372 20.75 6.375V4.875ZM5.37305 18.0732L5.38574 18.1914C5.42812 18.4649 5.56068 18.7177 5.76367 18.9092C5.99574 19.1279 6.30316 19.2501 6.62207 19.25H17.3779L17.4971 19.2441C17.7727 19.218 18.0332 19.1006 18.2363 18.9092C18.4682 18.6905 18.6083 18.3915 18.627 18.0732L19.1895 8.5H4.81055L5.37305 18.0732ZM14 10.25C14.5523 10.25 15 10.6977 15 11.25C15 11.8023 14.5523 12.25 14 12.25H10C9.44772 12.25 9 11.8023 9 11.25C9 10.6977 9.44772 10.25 10 10.25H14ZM22.75 6.375C22.75 7.34974 22.0923 8.16872 21.1973 8.41895L20.623 18.1904C20.5744 19.0181 20.2117 19.7965 19.6084 20.3652C19.0804 20.8629 18.4031 21.1672 17.6865 21.2354L17.3779 21.25H6.62207C5.79302 21.2502 4.9949 20.9339 4.3916 20.3652C3.86357 19.8675 3.51946 19.2094 3.40918 18.498L3.37695 18.1904L2.80176 8.41895C1.90715 8.16842 1.25 7.34941 1.25 6.375V4.875C1.25 3.70172 2.20172 2.75 3.375 2.75H20.625C21.7983 2.75 22.75 3.70172 22.75 4.875V6.375Z"></path>
</symbol>
<symbol viewBox="0 0 31 39" id="big-play">
<path d="M31.0833 19.5208L0.0998146 0.420998V38.6206L31.0833 19.5208Z"></path>
</symbol>
<symbol viewBox="0 0 24 24" id="check">
<path d="M18.7283 4.6133C19.0506 4.22186 19.6235 4.1307 20.0545 4.41799C20.4852 4.70517 20.6216 5.26886 20.3845 5.71682L20.3318 5.80471L11.3318 19.3047C11.1656 19.554 10.8965 19.7156 10.5984 19.7451C10.3003 19.7747 10.0046 19.6689 9.79273 19.4571L3.79273 13.4571L3.72437 13.3809C3.40402 12.9881 3.42662 12.4091 3.79273 12.043C4.15885 11.6769 4.73785 11.6543 5.13063 11.9746L5.2068 12.043L10.3435 17.1797L18.6677 4.69533L18.7283 4.6133Z"></path>
</symbol>
<symbol viewBox="0 0 24 24" id="chevronDown">
<path d="M18.6162 7.36621C19.1044 6.87806 19.8956 6.87806 20.3838 7.36621C20.8719 7.85437 20.8719 8.64563 20.3838 9.13379L12.8838 16.6338C12.3956 17.1219 11.6044 17.1219 11.1162 16.6338L3.61621 9.13379L3.53027 9.03906C3.12979 8.54809 3.15855 7.82387 3.61621 7.36621C4.07387 6.90855 4.79809 6.87979 5.28906 7.28027L5.38379 7.36621L12 13.9824L18.6162 7.36621Z"></path>
</symbol>
<symbol viewBox="0 0 24 24" id="clock">
<path d="M20 12C20 9.87827 19.1575 7.84306 17.6572 6.34277C16.1569 4.84248 14.1217 4 12 4C9.87827 4 7.84306 4.84248 6.34277 6.34277C4.84248 7.84306 4 9.87827 4 12C4 13.0506 4.20734 14.0909 4.60938 15.0615C5.01141 16.0321 5.59995 16.9144 6.34277 17.6572C7.08559 18.4 7.96795 18.9886 8.93848 19.3906C9.90908 19.7927 10.9494 20 12 20C13.0506 20 14.0909 19.7927 15.0615 19.3906C16.0321 18.9886 16.9144 18.4 17.6572 17.6572C18.4 16.9144 18.9886 16.0321 19.3906 15.0615C19.7927 14.0909 20 13.0506 20 12ZM11 6C11 5.44772 11.4477 5 12 5C12.5523 5 13 5.44772 13 6V11H16.5C17.0523 11 17.5 11.4477 17.5 12C17.5 12.5523 17.0523 13 16.5 13H12C11.4477 13 11 12.5523 11 12V6ZM22 12C22 13.3132 21.7418 14.6139 21.2393 15.8271C20.7367 17.0404 19.9998 18.1427 19.0713 19.0713C18.1427 19.9998 17.0404 20.7367 15.8271 21.2393C14.6139 21.7418 13.3132 22 12 22C10.6868 22 9.38611 21.7418 8.17285 21.2393C6.95964 20.7367 5.85727 19.9998 4.92871 19.0713C4.00015 18.1427 3.26329 17.0404 2.76074 15.8271C2.2582 14.6139 2 13.3132 2 12C2 9.34784 3.05335 6.80407 4.92871 4.92871C6.80407 3.05335 9.34784 2 12 2C14.6522 2 17.1959 3.05335 19.0713 4.92871C20.9467 6.80407 22 9.34784 22 12Z"></path>
</symbol>
<symbol viewBox="0 0 24 24" id="desktop">
<path d="M14 18.25H10V18.2568L9.99512 18.4541C9.97256 18.9122 9.87121 19.3634 9.69531 19.7881C9.6656 19.8598 9.63335 19.9303 9.59961 20H14.4004C14.3666 19.9303 14.3344 19.8598 14.3047 19.7881C14.1036 19.3026 13.9999 18.7823 14 18.2568V18.25ZM19.999 15C19.6069 15.1633 19.183 15.25 18.75 15.25H5.25C4.81671 15.25 4.39235 15.1635 4 15C4 15.3315 4.13179 15.6494 4.36621 15.8838C4.60063 16.1182 4.91848 16.25 5.25 16.25H18.75L18.874 16.2441C19.16 16.2156 19.4288 16.0888 19.6338 15.8838C19.8682 15.6494 19.999 15.3315 19.999 15ZM19.9941 5.12598C19.9656 4.83999 19.8388 4.57122 19.6338 4.36621C19.3994 4.13179 19.0815 4 18.75 4H5.25C4.91848 4 4.60063 4.13179 4.36621 4.36621C4.13179 4.60063 4 4.91848 4 5.25V12C4 12.3315 4.13179 12.6494 4.36621 12.8838C4.60063 13.1182 4.91848 13.25 5.25 13.25H18.75C19.0815 13.25 19.3994 13.1182 19.6338 12.8838C19.8388 12.6788 19.9656 12.41 19.9941 12.124L20 12V5.25L19.9941 5.12598ZM22 15L21.9961 15.1611C21.9563 15.9644 21.6193 16.7264 21.0479 17.2979C20.4764 17.8693 19.7144 18.2063 18.9111 18.2461L18.75 18.25H16V18.2568L16.0098 18.4531C16.029 18.6485 16.0769 18.8404 16.1523 19.0225C16.2529 19.2652 16.4001 19.4861 16.5859 19.6719L17.207 20.293C17.493 20.579 17.5786 21.0091 17.4238 21.3828C17.269 21.7564 16.9044 22 16.5 22H7.5C7.09558 22 6.73098 21.7564 6.57617 21.3828C6.42139 21.0091 6.50697 20.579 6.79297 20.293L7.41406 19.6719L7.5459 19.5264C7.67053 19.3745 7.77221 19.2046 7.84766 19.0225C7.92306 18.8404 7.97101 18.6485 7.99023 18.4531L8 18.2568V18.25H5.25C4.38805 18.25 3.56164 17.9073 2.95215 17.2979C2.34266 16.6884 2 15.862 2 15V5.25C2 4.38805 2.34266 3.56164 2.95215 2.95215C3.56164 2.34266 4.38805 2 5.25 2H18.75C19.612 2 20.4384 2.34266 21.0479 2.95215C21.6573 3.56164 22 4.38805 22 5.25V15Z"></path>
</symbol>
<symbol viewBox="0 0 24 24" id="dotsHorizontal">
<path d="M4.5 12C4.5 11.6022 4.65815 11.2208 4.93945 10.9395C5.22076 10.6581 5.60217 10.5 6 10.5C6.39783 10.5 6.77924 10.6581 7.06055 10.9395C7.34185 11.2208 7.5 11.6022 7.5 12L7.49219 12.1484C7.45805 12.4917 7.30663 12.8145 7.06055 13.0605C6.77924 13.3419 6.39783 13.5 6 13.5C5.60217 13.5 5.22076 13.3419 4.93945 13.0605C4.69337 12.8145 4.54195 12.4917 4.50781 12.1484L4.5 12ZM10.5 12C10.5 11.6022 10.6581 11.2208 10.9395 10.9395C11.2208 10.6581 11.6022 10.5 12 10.5C12.3978 10.5 12.7792 10.6581 13.0605 10.9395C13.3419 11.2208 13.5 11.6022 13.5 12C13.5 12.3978 13.3419 12.7792 13.0605 13.0605C12.7792 13.3419 12.3978 13.5 12 13.5C11.6022 13.5 11.2208 13.3419 10.9395 13.0605C10.6581 12.7792 10.5 12.3978 10.5 12ZM16.5 12C16.5 11.6022 16.6581 11.2208 16.9395 10.9395C17.2208 10.6581 17.6022 10.5 18 10.5C18.3978 10.5 18.7792 10.6581 19.0605 10.9395C19.3419 11.2208 19.5 11.6022 19.5 12C19.5 12.3978 19.3419 12.7792 19.0605 13.0605C18.7792 13.3419 18.3978 13.5 18 13.5C17.6022 13.5 17.2208 13.3419 16.9395 13.0605C16.6581 12.7792 16.5 12.3978 16.5 12Z"></path>
</symbol>
<symbol viewBox="0 0 24 24" id="edit">
<path d="M20.7502 4.12476C20.7501 3.89289 20.6582 3.67064 20.4943 3.50659C20.3302 3.34245 20.1073 3.24976 19.8752 3.24976C19.643 3.24976 19.4202 3.34245 19.256 3.50659L19.2551 3.50562L18.2756 4.48608L19.5138 5.72437L20.4943 4.7439L20.5519 4.67944C20.6795 4.5237 20.7502 4.32786 20.7502 4.12476ZM4.88689 17.8738L4.88787 17.8748C4.52821 18.2346 4.25188 18.6682 4.07732 19.1443L4.00897 19.3503L3.7365 20.2634L4.64959 19.9919L4.85662 19.9226C5.33231 19.7481 5.76553 19.4724 6.12518 19.113L18.0998 7.13843L16.8625 5.90112L4.88689 17.8738ZM22.7502 4.12476C22.7502 4.79205 22.5181 5.43537 22.0988 5.94702L21.9084 6.15796L7.53924 20.5271C6.97388 21.0921 6.29296 21.5262 5.5451 21.8005L5.22088 21.908L2.53533 22.7087C2.18354 22.8134 1.80269 22.7163 1.54314 22.4568C1.28359 22.1971 1.18735 21.8165 1.29217 21.4646L2.09197 18.7791C2.35268 17.9037 2.8272 17.1067 3.47283 16.4607L16.1369 3.79858C16.1427 3.79243 16.1484 3.78607 16.1545 3.78003L17.842 2.09253V2.09155L18.0529 1.90112C18.5646 1.48184 19.2079 1.24976 19.8752 1.24976C20.6377 1.24976 21.3692 1.55242 21.9084 2.09155C22.4475 2.63071 22.7501 3.36228 22.7502 4.12476Z"></path>
</symbol>
<symbol viewBox="0 0 24 24" id="externalLink">
<path d="M2 18.75V8.25C2 7.38805 2.34266 6.56164 2.95215 5.95215C3.56164 5.34266 4.38805 5 5.25 5H13.5C14.0523 5 14.5 5.44772 14.5 6C14.5 6.55228 14.0523 7 13.5 7H5.25C4.91848 7 4.60063 7.13179 4.36621 7.36621C4.13179 7.60063 4 7.91848 4 8.25V18.75C4 19.0815 4.13179 19.3994 4.36621 19.6338C4.60063 19.8682 4.91848 20 5.25 20H15.75L15.874 19.9941C16.16 19.9656 16.4288 19.8388 16.6338 19.6338C16.8682 19.3994 17 19.0815 17 18.75V10.5C17 9.94772 17.4477 9.5 18 9.5C18.5523 9.5 19 9.94772 19 10.5V18.75C19 19.612 18.6573 20.4384 18.0479 21.0479C17.4764 21.6193 16.7144 21.9563 15.9111 21.9961L15.75 22H5.25C4.38805 22 3.56164 21.6573 2.95215 21.0479C2.34266 20.4384 2 19.612 2 18.75ZM22 8.25C22 8.80228 21.5523 9.25 21 9.25C20.4477 9.25 20 8.80228 20 8.25V5.41406L8.20703 17.207C7.81651 17.5976 7.18349 17.5976 6.79297 17.207C6.40244 16.8165 6.40244 16.1835 6.79297 15.793L18.5859 4H15.75C15.1977 4 14.75 3.55228 14.75 3C14.75 2.44772 15.1977 2 15.75 2H21L21.1025 2.00488C21.6067 2.05621 22 2.48232 22 3V8.25Z"></path>
</symbol>
<symbol viewBox="0 0 24 24" id="github">
<path d="M12 2C10.6868 2 9.38642 2.25866 8.17317 2.7612C6.95991 3.26375 5.85752 4.00035 4.92893 4.92893C3.05357 6.8043 2 9.34784 2 12C2 16.42 4.87 20.17 8.84 21.5C9.34 21.58 9.5 21.27 9.5 21V19.31C6.73 19.91 6.14 17.97 6.14 17.97C5.68 16.81 5.03 16.5 5.03 16.5C4.12 15.88 5.1 15.9 5.1 15.9C6.1 15.97 6.63 16.93 6.63 16.93C7.5 18.45 8.97 18 9.54 17.76C9.63 17.11 9.89 16.67 10.17 16.42C7.95 16.17 5.62 15.31 5.62 11.5C5.62 10.39 6 9.5 6.65 8.79C6.55 8.54 6.2 7.5 6.75 6.15C6.75 6.15 7.59 5.88 9.5 7.17C10.29 6.95 11.15 6.84 12 6.84C12.85 6.84 13.71 6.95 14.5 7.17C16.41 5.88 17.25 6.15 17.25 6.15C17.8 7.5 17.45 8.54 17.35 8.79C18 9.5 18.38 10.39 18.38 11.5C18.38 15.32 16.04 16.16 13.81 16.41C14.17 16.72 14.5 17.33 14.5 18.26V21C14.5 21.27 14.66 21.59 15.17 21.5C19.14 20.16 22 16.42 22 12C22 10.6868 21.7413 9.38642 21.2388 8.17317C20.7362 6.95991 19.9997 5.85752 19.0711 4.92893C18.1425 4.00035 17.0401 3.26375 15.8268 2.7612C14.6136 2.25866 13.3132 2 12 2Z"></path>
</symbol>
<symbol viewBox="0 0 24 24" id="link">
<path d="M13.6211 7.78513C14.4152 8.16429 15.1068 8.7288 15.6377 9.43063C16.1686 10.1325 16.5231 10.9519 16.6719 11.8193C16.8206 12.6867 16.759 13.5773 16.4922 14.416C16.2254 15.2547 15.7612 16.0175 15.1387 16.6396L15.1377 16.6386L10.6387 21.1386C9.67161 22.1057 8.38197 22.6758 7.02246 22.7431L6.75 22.75C5.29131 22.75 3.89278 22.1701 2.86133 21.1386C1.82989 20.1072 1.25 18.7087 1.25 17.25C1.25001 15.7913 1.82988 14.3927 2.86133 13.3613L4.61816 11.6035L4.69434 11.5351C5.08705 11.2151 5.66621 11.2376 6.03223 11.6035C6.42275 11.994 6.42275 12.628 6.03223 13.0185L4.27539 14.7754C3.61901 15.4317 3.25001 16.3217 3.25 17.25C3.25 18.1782 3.61902 19.0682 4.27539 19.7246C4.93177 20.381 5.82174 20.75 6.75 20.75L6.92383 20.7461C7.78882 20.7031 8.6093 20.3399 9.22461 19.7246L13.7246 15.2246H13.7256L13.8691 15.0722C14.1934 14.7069 14.4384 14.2765 14.5869 13.8095C14.7566 13.2759 14.7958 12.7091 14.7012 12.1572C14.6065 11.6054 14.3807 11.0842 14.043 10.6377C13.7051 10.191 13.2642 9.8321 12.7588 9.59079L13.1904 8.68845L13.6211 7.78513ZM20.75 6.74997C20.75 5.82171 20.381 4.93174 19.7246 4.27536C19.1093 3.66007 18.2888 3.29684 17.4238 3.25388L17.25 3.24997C16.3799 3.24998 15.5434 3.57409 14.9014 4.15524L14.7754 4.27536L10.2754 8.77536H10.2744C9.87836 9.17121 9.58283 9.65679 9.41309 10.1904C9.24341 10.724 9.2042 11.2909 9.29883 11.8427C9.39346 12.3946 9.61934 12.9157 9.95703 13.3623C10.2949 13.809 10.7358 14.1678 11.2412 14.4091C11.7395 14.6471 11.9508 15.2448 11.7129 15.7431C11.4749 16.2415 10.8773 16.4528 10.3789 16.2148C9.58476 15.8356 8.89321 15.2711 8.3623 14.5693C7.8314 13.8674 7.47686 13.048 7.32812 12.1806C7.1794 11.3132 7.24103 10.4227 7.50781 9.58395C7.74121 8.85022 8.12535 8.17466 8.63477 7.60056L8.86133 7.36032L13.3613 2.8613L13.5586 2.67282C14.5675 1.75929 15.8825 1.24998 17.25 1.24997L17.5225 1.25681C18.882 1.32418 20.1716 1.89426 21.1387 2.8613C22.1701 3.89275 22.75 5.29128 22.75 6.74997C22.75 8.20867 22.1701 9.60719 21.1387 10.6386L19.3818 12.3965L19.3066 12.4648C18.9139 12.7853 18.334 12.7625 17.9678 12.3965C17.5772 12.0059 17.5772 11.3719 17.9678 10.9814L19.7246 9.22458C20.381 8.5682 20.75 7.67823 20.75 6.74997ZM12.2881 8.25681C12.5262 7.75874 13.1229 7.54725 13.6211 7.78513L12.7588 9.59079C12.2605 9.35278 12.0502 8.75514 12.2881 8.25681Z"></path>
</symbol>
<symbol viewBox="0 0 24 24" id="minus">
<path d="M1.78324 10C1.3133 10 1 10.3133 1 10.7832V12.3497C1 12.8197 1.3133 13.133 1.78324 13.133H22.4086C22.8786 13.133 23.1919 12.8197 23.1919 12.3497V10.7832C23.1919 10.3133 22.8786 10 22.4086 10H1.78324Z"></path>
</symbol>
<symbol viewBox="0 0 24 24" id="moon">
<path d="M7.25 5.99996C7.25 5.43623 7.29416 4.8825 7.37793 4.34175C6.63939 4.91646 5.99323 5.60835 5.46875 6.39547C4.51085 7.83312 3.99985 9.52241 4 11.25L4.01172 11.7002C4.24599 16.3236 8.06826 20 12.75 20L13.0732 19.9941C14.6876 19.9346 16.2566 19.4293 17.6045 18.5312C18.3918 18.0066 19.0834 17.3599 19.6582 16.6211C19.1108 16.7061 18.5566 16.7496 18 16.749V16.75C12.0627 16.75 7.25 11.9372 7.25 5.99996ZM9.25 5.99996C9.25 10.8327 13.1673 14.75 18 14.75H18.001L18.4336 14.7402C19.4413 14.6915 20.434 14.468 21.3672 14.0791C21.7412 13.9232 22.1724 14.0084 22.459 14.2949C22.7096 14.5456 22.8068 14.9072 22.7227 15.2441L22.6748 15.3867C21.8577 17.3454 20.479 19.0185 18.7129 20.1953C17.0572 21.2984 15.1305 21.9199 13.1475 21.9931L12.75 22C6.9984 22 2.30179 17.4836 2.01367 11.8037L2 11.25C1.99984 9.12775 2.62797 7.05316 3.80469 5.28707C4.98147 3.52092 6.6546 2.14225 8.61328 1.32515L8.75586 1.27828C9.09295 1.19402 9.4543 1.29018 9.70508 1.54097C9.95583 1.79176 10.052 2.15313 9.96777 2.49019L9.9209 2.63277C9.48894 3.66786 9.25001 4.80446 9.25 5.99996Z"></path>
</symbol>
<symbol viewBox="0 0 24 24" id="plus">
<path d="M0 11.1247C0 10.6165 0.338823 10.2776 0.847059 10.2776H10.3341V0.847058C10.3341 0.338821 10.6729 0 11.1812 0H12.8753C13.3835 0 13.7224 0.338821 13.7224 0.847058V10.2776H23.1529C23.6612 10.2776 24 10.6165 24 11.1247V12.8188C24 13.3271 23.6612 13.6659 23.1529 13.6659H13.7224V23.1529C13.7224 23.6612 13.3835 24 12.8753 24H11.1812C10.6729 24 10.3341 23.6612 10.3341 23.1529V13.6659H0.847059C0.338823 13.6659 0 13.3271 0 12.8188V11.1247Z"></path>
</symbol>
<symbol viewBox="0 0 24 24" id="search">
<path d="M16.9957 10.7009C16.9957 9.03143 16.3321 7.43063 15.1516 6.25012C13.9711 5.06962 12.3703 4.40604 10.7009 4.40603C9.03138 4.40603 7.4306 5.06961 6.25009 6.25012C5.06958 7.43063 4.406 9.03141 4.406 10.7009C4.40601 12.3704 5.06959 13.9712 6.25009 15.1517C7.43059 16.3322 9.0314 16.9958 10.7009 16.9958C12.3703 16.9958 13.9711 16.3322 15.1516 15.1517C16.3321 13.9712 16.9957 12.3704 16.9957 10.7009ZM19.9009 10.7009C19.9009 12.6512 19.2795 14.5361 18.1498 16.0958L22.5745 20.5205L22.6744 20.6306C23.1396 21.2011 23.1063 22.0428 22.5745 22.5746C22.0428 23.1063 21.2011 23.1396 20.6306 22.6744L20.5205 22.5746L16.0958 18.1499C14.5361 19.2795 12.6512 19.9009 10.7009 19.9009C8.26088 19.9009 5.92025 18.931 4.19493 17.2057C2.46993 15.4804 1.50087 13.1406 1.50085 10.7009C1.50085 8.26092 2.4696 5.92028 4.19493 4.19496L4.52629 3.88061C6.2139 2.35266 8.41351 1.50089 10.7009 1.50089C13.1406 1.5009 15.4804 2.46996 17.2057 4.19496C18.931 5.92028 19.9009 8.26091 19.9009 10.7009Z"></path>
</symbol>
<symbol viewBox="0 0 24 24" id="star">
<path d="M12.1164 2.15408C12.347 2.17125 12.5707 2.24009 12.7717 2.35428L12.8703 2.41483L12.9641 2.48318C13.1751 2.64868 13.3405 2.86605 13.4436 3.11502L15.465 7.9783L20.718 8.40018L20.8459 8.41483C22.1375 8.6182 22.6331 10.2699 21.6096 11.1453L21.6086 11.1443L17.6076 14.573L18.8312 19.6961L18.8537 19.8094C18.8968 20.0748 18.8703 20.3479 18.7766 20.6013C18.6695 20.8908 18.4794 21.1426 18.2297 21.324C17.9799 21.5054 17.6817 21.6087 17.3732 21.6209C17.0649 21.633 16.7596 21.5535 16.4963 21.3924V21.3914L12.0002 18.6463L7.50312 21.3924L7.5041 21.3933C7.24087 21.5544 6.93547 21.634 6.62715 21.6219C6.31874 21.6096 6.02045 21.5063 5.7707 21.325C5.52096 21.1436 5.33086 20.8918 5.22383 20.6023C5.11679 20.3127 5.09833 19.9973 5.17012 19.6971L6.3918 14.573L2.39277 11.1463L2.30781 11.0681C2.11623 10.8788 1.97614 10.6421 1.90254 10.3816C1.8186 10.0842 1.82463 9.7683 1.92012 9.4744L1.96015 9.366C2.06206 9.11683 2.22714 8.89763 2.43965 8.73026L2.53242 8.6619C2.75506 8.51176 3.01347 8.42151 3.28242 8.40018L8.53437 7.9783L10.5568 3.11502C10.6746 2.83025 10.8741 2.58654 11.1301 2.41483L11.2287 2.35428C11.4633 2.22095 11.729 2.15021 12.0002 2.15018L12.1164 2.15408ZM10.2785 8.99393C10.1681 9.25934 9.98665 9.48902 9.7541 9.65799C9.57958 9.78475 9.38122 9.87358 9.17207 9.91971L8.96015 9.95193L4.48945 10.3094L7.89472 13.2263L8.04805 13.3767C8.14265 13.4832 8.22198 13.6022 8.28437 13.7303L8.36543 13.9295L8.41816 14.1375C8.45606 14.3479 8.45017 14.5647 8.40058 14.7742L8.39961 14.7762L7.35957 19.1365L11.1857 16.8006L11.3762 16.7019C11.5723 16.6164 11.7847 16.5721 12.0002 16.5721L12.2141 16.5867C12.4261 16.616 12.6307 16.6882 12.8146 16.8006L16.6408 19.1365L15.6008 14.7762L15.5998 14.7732C15.534 14.494 15.5468 14.2021 15.6359 13.9295L15.716 13.7312C15.8095 13.5391 15.9413 13.3672 16.1047 13.2273L19.51 10.3094L15.0402 9.95193V9.95096C14.7538 9.92797 14.4788 9.82686 14.2463 9.65799C14.072 9.53131 13.926 9.37073 13.8176 9.18631L13.7219 8.99393L12.0002 4.85233L10.2785 8.99393ZM3.44258 10.3933L3.43965 10.3943C3.44284 10.3941 3.44623 10.3927 3.44941 10.3924L3.44258 10.3933Z"></path>
</symbol>
<symbol viewBox="0 0 32 32" id="sun">
<path d="M14.75 28V25C14.75 24.3096 15.3096 23.75 16 23.75C16.6904 23.75 17.25 24.3096 17.25 25V28C17.25 28.6904 16.6904 29.25 16 29.25C15.3096 29.25 14.75 28.6904 14.75 28ZM8.75195 21.4805C9.24011 20.9923 10.0314 20.9923 10.5195 21.4805C11.0077 21.9686 11.0077 22.7599 10.5195 23.248L8.39844 25.3691C7.91028 25.8573 7.11901 25.8573 6.63086 25.3691C6.14271 24.881 6.14272 24.0897 6.63086 23.6016L8.75195 21.4805ZM21.4805 21.4805C21.9382 21.0227 22.6623 20.9938 23.1533 21.3945L23.248 21.4805L25.3691 23.6016L25.4551 23.6963C25.8555 24.1873 25.8268 24.9115 25.3691 25.3691C24.9115 25.8268 24.1873 25.8555 23.6963 25.4551L23.6016 25.3691L21.4805 23.248L21.3945 23.1533C20.9938 22.6623 21.0227 21.9382 21.4805 21.4805ZM19.7451 15.8145C19.6992 14.8875 19.3108 14.008 18.6514 13.3486C17.992 12.6892 17.1126 12.3008 16.1855 12.2549L16 12.25C15.0054 12.25 14.0519 12.6454 13.3486 13.3486C12.6454 14.0519 12.25 15.0054 12.25 16C12.25 16.9946 12.6454 17.9481 13.3486 18.6514C14.0519 19.3546 15.0054 19.75 16 19.75C16.9946 19.75 17.9481 19.3546 18.6514 18.6514C19.3546 17.9481 19.75 16.9946 19.75 16L19.7451 15.8145ZM7 14.75L7.12793 14.7568C7.75817 14.8209 8.25 15.3528 8.25 16C8.25 16.6472 7.75817 17.1791 7.12793 17.2432L7 17.25H4C3.30964 17.25 2.75 16.6904 2.75 16C2.75 15.3096 3.30964 14.75 4 14.75H7ZM28 14.75L28.1279 14.7568C28.7582 14.8209 29.25 15.3528 29.25 16C29.25 16.6472 28.7582 17.1791 28.1279 17.2432L28 17.25H25C24.3096 17.25 23.75 16.6904 23.75 16C23.75 15.3096 24.3096 14.75 25 14.75H28ZM6.63086 6.63086C7.08851 6.1732 7.81274 6.14445 8.30371 6.54492L8.39844 6.63086L10.5195 8.75195L10.6055 8.84668C11.0062 9.33765 10.9773 10.0618 10.5195 10.5195C10.0618 10.9773 9.33765 11.0062 8.84668 10.6055L8.75195 10.5195L6.63086 8.39844L6.54492 8.30371C6.14445 7.81274 6.1732 7.08851 6.63086 6.63086ZM23.6016 6.63086C24.0897 6.14272 24.881 6.14271 25.3691 6.63086C25.8573 7.11901 25.8573 7.91028 25.3691 8.39844L23.248 10.5195C22.7599 11.0077 21.9686 11.0077 21.4805 10.5195C20.9923 10.0314 20.9923 9.24011 21.4805 8.75195L23.6016 6.63086ZM14.75 7V4C14.75 3.30964 15.3096 2.75 16 2.75C16.6904 2.75 17.25 3.30964 17.25 4V7C17.25 7.69036 16.6904 8.25 16 8.25C15.3096 8.25 14.75 7.69036 14.75 7ZM22.2422 16.3096C22.1656 17.8545 21.5179 19.32 20.4189 20.4189C19.2468 21.591 17.6576 22.25 16 22.25C14.3424 22.25 12.7532 21.591 11.5811 20.4189C10.409 19.2468 9.75 17.6576 9.75 16C9.75 14.3424 10.409 12.7532 11.5811 11.5811C12.7532 10.409 14.3424 9.75 16 9.75L16.3096 9.75781C17.8545 9.83437 19.32 10.4821 20.4189 11.5811C21.591 12.7532 22.25 14.3424 22.25 16L22.2422 16.3096Z"></path>
</symbol>
<symbol viewBox="0 0 24 24" id="trash">
<path d="M10.3079 1.27685C11.4355 1.24081 12.5649 1.24081 13.6926 1.27685L13.6916 1.27783C15.4373 1.33262 16.7488 2.78304 16.7493 4.47607C17.6281 4.56079 18.505 4.66926 19.3782 4.80126L20.4211 4.97118C20.9653 5.06561 21.33 5.58328 21.2356 6.12743C21.1445 6.65087 20.6619 7.00571 20.1409 6.94775L19.1575 19.7495C19.0945 20.5659 18.7252 21.329 18.1243 21.8852C17.5984 22.3719 16.9288 22.6693 16.2209 22.7358L15.9163 22.7505H8.08422C7.26555 22.7506 6.47706 22.4413 5.87621 21.8852C5.35037 21.3985 5.00208 20.7537 4.88109 20.0532L4.84301 19.7495L3.85863 6.94677C3.33795 7.00419 2.85589 6.64956 2.76488 6.12646C2.67046 5.58231 3.03519 5.06464 3.57934 4.97021L4.62231 4.80126L5.50707 4.67529C6.08687 4.59839 6.66806 4.5322 7.25024 4.47607C7.25073 2.78465 8.56241 1.33216 10.3079 1.27685ZM15.6731 6.39013C13.5337 6.22479 11.3859 6.20361 9.24438 6.32763L8.32738 6.39013C7.49642 6.45446 6.66733 6.54061 5.84106 6.64892L6.83715 19.5962L6.8518 19.7124C6.89827 19.982 7.03227 20.2302 7.23461 20.4175C7.46573 20.6313 7.76932 20.7506 8.08422 20.7505H15.9163L16.0344 20.7446C16.3064 20.7189 16.5637 20.6045 16.7659 20.4175C16.997 20.2035 17.1391 19.9102 17.1633 19.5962L18.1584 6.64892C17.6156 6.57778 17.0716 6.51652 16.5266 6.46435L15.6731 6.39013ZM10.6057 17.9614L10.6047 18.064C10.573 18.5698 10.1621 18.9796 9.64477 18.9995C9.1273 19.0194 8.68689 18.6422 8.61645 18.1401L8.60668 18.0386L8.26098 9.03857L10.259 8.96142L10.6057 17.9614ZM14.7786 8.00048C15.3304 8.0217 15.7607 8.48669 15.7395 9.03857L15.3938 18.0386L15.384 18.1401C15.3136 18.6422 14.8732 19.0194 14.3557 18.9995C13.8039 18.9782 13.3736 18.5133 13.3948 17.9614L13.7414 8.96142C13.7628 8.40968 14.2268 7.97933 14.7786 8.00048ZM9.22191 8.00048C9.77368 7.97933 10.2377 8.40968 10.259 8.96142L8.26098 9.03857C8.23976 8.48669 8.67004 8.0217 9.22191 8.00048ZM11.1858 3.25634L10.3723 3.27587C9.80644 3.29374 9.33055 3.73409 9.26 4.3247C11.0851 4.22385 12.9144 4.22388 14.7395 4.3247C14.669 3.73362 14.1953 3.29375 13.6291 3.27587C12.8152 3.24986 11.9999 3.24333 11.1858 3.25634Z"></path>
</symbol>
<symbol viewBox="0 0 24 24" id="view">
<path d="M11.9999 3.5C17.0812 3.5 21.39 6.79526 22.912 11.3623H22.911C23.0499 11.7763 23.0499 12.2228 22.911 12.6357C21.3921 17.2038 17.0819 20.5 11.9999 20.5C6.9187 20.4999 2.60975 17.2048 1.08774 12.6377H1.08677C0.949605 12.2254 0.949582 11.7795 1.08677 11.3672L1.23716 10.9434C2.87551 6.59525 7.07518 3.50006 11.9999 3.5ZM11.9999 5.5C7.93447 5.50006 4.46333 8.05455 3.10923 11.6475L2.9852 11.998V12.0059H2.98423C4.2422 15.7807 7.80512 18.4999 11.9999 18.5C16.1964 18.5 19.7592 15.778 21.0135 12.002L21.0155 11.998L21.0145 11.9941C19.7565 8.21918 16.1945 5.5 11.9999 5.5Z"></path>
<path d="M13.9902 11.8027C13.9449 11.3447 13.7423 10.9142 13.4141 10.5859C13.039 10.2109 12.5304 10 12 10C11.4696 10 10.961 10.2109 10.5859 10.5859C10.2109 10.961 10 11.4696 10 12C10 12.5304 10.2109 13.039 10.5859 13.4141C10.961 13.7891 11.4696 14 12 14C12.5304 14 13.039 13.7891 13.4141 13.4141C13.7891 13.039 14 12.5304 14 12L13.9902 11.8027ZM16 12C16 13.0609 15.5783 14.078 14.8281 14.8281C14.078 15.5783 13.0609 16 12 16C10.9391 16 9.92202 15.5783 9.17188 14.8281C8.42173 14.078 8 13.0609 8 12C8 10.9391 8.42173 9.92202 9.17188 9.17188C9.92202 8.42173 10.9391 8 12 8C13.0609 8 14.078 8.42173 14.8281 9.17188C15.5783 9.92202 16 10.9391 16 12Z"></path>
</symbol>
</defs>
</svg>
